{"title":"Jhak Maar Ke (Desi Boyz) - Full Song - H.264 - 720p DVDRip ~~~Ab","uid":6945680,"size":97167320,"categoryP":"video","categoryS":"music_videos","magnet":"?xt=urn:btih:d902dbf118d0a8d7de87478cfa5129140003f3c3&amp;dn=Jhak+Maar+Ke+%28Desi+Boyz%29+-+Full+Song+-+H.264+-+720p+DVDRip+%7E%7E%7EAb&amp;tr=udp%3A%2F%2Ftracker.openbittorrent.com%3A80&amp;tr=udp%3A%2F%2Fopen.demonii.com%3A1337&amp;tr=udp%3A%2F%2Ftracker.coppersurfer.tk%3A6969&amp;tr=udp%3A%2F%2Fexodus.desync.com%3A6969","seeders":1,"leechers":0,"uploader":"AbhiHKRG","files":6,"time":1326217634,"description":"COVER ::\n &lt;a href=&quot;\nhttp://i.minus.com/ihWrDkmffm9lj.png&quot; rel=&quot;nofollow&quot; target=&quot;_NEW&quot;&gt;\nhttp://i.minus.com/ihWrDkmffm9lj.png&lt;/a&gt;\n\n\nSCREEN ::\n &lt;a href=&quot;\nhttp://i.minus.com/iym32asdLPoIG.png&quot; rel=&quot;nofollow&quot; target=&quot;_NEW&quot;&gt;\nhttp://i.minus.com/iym32asdLPoIG.png&lt;/a&gt;\n &lt;a href=&quot;\nhttp://i.minus.com/i8Gin753dJGcK.png&quot; rel=&quot;nofollow&quot; target=&quot;_NEW&quot;&gt;\nhttp://i.minus.com/i8Gin753dJGcK.png&lt;/a&gt;\n &lt;a href=&quot;\nhttp://i.minus.com/ibwgwMkD2q7G6p.png&quot; rel=&quot;nofollow&quot; target=&quot;_NEW&quot;&gt;\nhttp://i.minus.com/ibwgwMkD2q7G6p.png&lt;/a&gt;\n &lt;a href=&quot;\nhttp://i.minus.com/i4LuHW1QxSVpS.png&quot; rel=&quot;nofollow&quot; target=&quot;_NEW&quot;&gt;\nhttp://i.minus.com/i4LuHW1QxSVpS.png&lt;/a&gt;\n &lt;a href=&quot;\nhttp://i.minus.com/ixIX7WVHHsMRc.png&quot; rel=&quot;nofollow&quot; target=&quot;_NEW&quot;&gt;\nhttp://i.minus.com/ixIX7WVHHsMRc.png&lt;/a&gt;\n &lt;a href=&quot;\nhttp://i.minus.com/iggDeF3w7ILiV.png&quot; rel=&quot;nofollow&quot; target=&quot;_NEW&quot;&gt;\nhttp://i.minus.com/iggDeF3w7ILiV.png&lt;/a&gt;\n &lt;a href=&quot;\nhttp://i.minus.com/iONzRqO3ksF39.png&quot; rel=&quot;nofollow&quot; target=&quot;_NEW&quot;&gt;\nhttp://i.minus.com/iONzRqO3ksF39.png&lt;/a&gt;\n &lt;a href=&quot;\nhttp://i.minus.com/iNECIaYX1MYhv.png&quot; rel=&quot;nofollow&quot; target=&quot;_NEW&quot;&gt;\nhttp://i.minus.com/iNECIaYX1MYhv.png&lt;/a&gt;\n\n\nGeneral ::\nFormat                           : AVI\nFormat/Info                      : Audio Video Interleave\nFile size                        : 92.7 MiB\nDuration                         : 4mn 15s\nOverall bit rate                 : 3 047 Kbps\n\n\nVideo Info ::\nID                               : 0\nFormat                           : AVC\nFormat/Info                      : Advanced Video Codec\nFormat profile                   : &lt;a class=&quot;__cf_email__&quot; href=&quot;/cdn-cgi/l/email-protection&quot; data-cfemail=&quot;abe3c2ccc3ebe79e859a&quot;&gt;[email&amp;#160;protected]&lt;/a&gt;&lt;script cf-hash='f9e31' type=&quot;text/javascript&quot;&gt;\n/* &lt;![CDATA[ */!function(){try{var t=&quot;currentScript&quot;in document?document.currentScript:function(){for(var t=document.getElementsByTagName(&quot;script&quot;),e=t.length;e--;)if(t[e].getAttribute(&quot;cf-hash&quot;))return t[e]}();if(t&amp;&amp;t.previousSibling){var e,r,n,i,c=t.previousSibling,a=c.getAttribute(&quot;data-cfemail&quot;);if(a){for(e=&quot;&quot;,r=parseInt(a.substr(0,2),16),n=2;a.length-n;n+=2)i=parseInt(a.substr(n,2),16)^r,e+=String.fromCharCode(i);e=document.createTextNode(e),c.parentNode.replaceChild(e,c)}}}catch(u){}}();/* ]]&gt; */&lt;/script&gt;\nFormat settings, CABAC           : Yes\nFormat settings, ReFrames        : 2 frames\nCodec ID                         : H264\nDuration                         : 10s 0ms\nBit rate                         : 2 713 Kbps\nWidth                            : 1 280 pixels\nHeight                           : 544 pixels\nDisplay aspect ratio             : 2.35:1\nFrame rate                       : 30.000 fps\nColor space                      : YUV\nChroma subsampling               : 4:2:0\nBit depth                        : 8 bits\nScan type                        : Progressive\nBits/(Pixel*Frame)               : 0.130\nStream size                      : 82.6 MiB (89%)\n\n\nAudio Info ::\nID                               : 1\nFormat                           : MPEG Audio\nFormat version                   : Version 1\nFormat profile                   : Layer 3\nCodec ID                         : 55\nCodec ID/Hint                    : MP3\nDuration                         : 4mn 15s\nBit rate mode                    : Constant\nBit rate                         : 320 Kbps\nChannel(s)                       : 2 channels\nSampling rate                    : 44.1 KHz\nCompression mode                 : Lossy\nStream size                      : 9.73 MiB (11%)","torrent":{"xt":"urn:btih:d902dbf118d0a8d7de87478cfa5129140003f3c3","amp;dn":"Jhak+Maar+Ke+%28Desi+Boyz%29+-+Full+Song+-+H.264+-+720p+DVDRip+%7E%7E%7EAb","amp;tr":["udp%3A%2F%2Ftracker.openbittorrent.com%3A80","udp%3A%2F%2Fopen.demonii.com%3A1337","udp%3A%2F%2Ftracker.coppersurfer.tk%3A6969","udp%3A%2F%2Fexodus.desync.com%3A6969"],"infoHash":"d902dbf118d0a8d7de87478cfa5129140003f3c3","infoHashBuffer":{"type":"Buffer","data":[217,2,219,241,24,208,168,215,222,135,71,140,250,81,41,20,0,3,243,195]},"announce":[],"urlList":[]}}